<svg viewBox="-0.42 0.28 105.84 47.43" fill="none" xmlns="http://www.w3.org/2000/svg">
<path d="M82.9041 31.7871C82.019 31.6255 81.1962 31.1274 80.6417 30.3298C80.2429 29.756 80.0368 29.1037 80.0117 28.4529H80.0072V7.85877H72.59V28.4706H72.5767C72.5767 28.948 72.6078 29.418 72.6686 29.8791C73.3387 35.022 77.6322 39.0219 82.9041 39.2384V31.7871Z" fill="#fff"/>
<path d="M47.5231 25.765C47.0487 19.7636 42.0273 15.0417 35.9044 15.0417C29.7814 15.0417 24.6637 19.8541 24.2723 25.937C24.2545 26.189 24.2471 26.4425 24.2471 26.699C24.2471 27.0192 24.2604 27.335 24.2856 27.6478C24.7675 33.6432 29.7859 38.3578 35.9044 38.3578C42.0228 38.3578 47.0487 33.6358 47.5231 27.633C47.5483 27.3246 47.5601 27.0133 47.5601 26.699C47.5601 26.3847 47.5468 26.0734 47.5231 25.765ZM38.2838 29.8346C36.5522 31.0384 34.1713 30.61 32.9674 28.8783C31.7636 27.1467 32.1906 24.7672 33.9237 23.5634C35.6553 22.3581 38.0348 22.7865 39.2386 24.5182C40.4424 26.2498 40.0155 28.6293 38.2838 29.8346Z" fill="#fff"/>
<path d="M71.6664 25.765C71.192 19.7636 66.1706 15.0417 60.0477 15.0417C53.9247 15.0417 48.807 19.8541 48.4156 25.937C48.3978 26.189 48.3904 26.4425 48.3904 26.699C48.3904 27.0192 48.4037 27.335 48.4289 27.6478C48.9108 33.6432 53.9292 38.3578 60.0477 38.3578C66.1661 38.3578 71.192 33.6358 71.6664 27.633C71.6916 27.3246 71.7034 27.0133 71.7034 26.699C71.7034 26.3847 71.6901 26.0734 71.6664 25.765ZM62.4271 29.8346C60.6955 31.0384 58.3146 30.61 57.1107 28.8783C55.9069 27.1467 56.3339 24.7672 58.067 23.5634C59.7986 22.3581 62.1781 22.7865 63.3819 24.5182C64.5857 26.2498 64.1588 28.6293 62.4271 29.8346Z" fill="#fff"/>
<path d="M23.276 25.937C22.7942 19.9415 17.7758 15.227 11.6558 15.227C5.21857 15.227 0 20.4456 0 26.8843C0 26.9851 0.00148255 27.0859 0.00444764 27.1853V47.2664H8.1555V38.0049C9.26 38.3548 10.4357 38.5416 11.6558 38.5416C17.838 38.5416 22.895 33.7307 23.2894 27.6478C23.3057 27.3943 23.3146 27.1408 23.3146 26.8858C23.3146 26.5656 23.3012 26.2498 23.276 25.9355V25.937ZM14.7929 29.0651C13.589 30.7968 11.2095 31.2252 9.47793 30.0214C7.74335 28.8161 7.31786 26.4381 8.52169 24.705C9.72552 22.9734 12.105 22.5449 13.8381 23.7502C15.5682 24.954 15.9967 27.3335 14.7929 29.0651Z" fill="#fff"/>
<path d="M7.87233 1.32814H1.26906C0.960691 1.32814 0.696798 1.42303 0.484793 1.61131C0.265376 1.80553 0.154185 2.06497 0.154185 2.38372C0.154185 2.70247 0.263894 2.9634 0.481828 3.16057C0.693833 3.35479 0.959209 3.45264 1.26906 3.45264H3.39652V11.0388C3.39652 11.3531 3.50771 11.6215 3.72713 11.835C3.94506 12.047 4.22378 12.1537 4.55587 12.1537C4.88796 12.1537 5.18299 12.047 5.40537 11.8364C5.63072 11.623 5.74487 11.3546 5.74487 11.0388V3.45264H7.87233C8.1807 3.45264 8.44459 3.35775 8.6566 3.16947C8.87602 2.97526 8.98721 2.71581 8.98721 2.39706C8.98721 2.07831 8.8775 1.81887 8.65956 1.61872C8.44756 1.42451 8.18218 1.32666 7.87233 1.32666V1.32814Z" fill="#fff"/>
<path d="M15.761 4.14202C15.3533 3.804 14.7603 3.63351 13.9997 3.63351C13.6483 3.63351 13.3192 3.68984 13.0197 3.80252C12.7262 3.91223 12.4534 4.059 12.2103 4.23839C12.065 4.34661 11.9315 4.45929 11.8115 4.57789V1.84852C11.8115 1.5357 11.7062 1.27033 11.5001 1.05684C11.2911 0.841869 11.0272 0.733643 10.7129 0.733643C10.3986 0.733643 10.1332 0.841869 9.92418 1.05684C9.7181 1.26884 9.61284 1.5357 9.61284 1.84852V11.0403C9.61284 11.3531 9.7181 11.62 9.92418 11.832C10.1317 12.047 10.3971 12.1552 10.7129 12.1552C11.0287 12.1552 11.2926 12.047 11.5016 11.832C11.7077 11.62 11.8129 11.3531 11.8129 11.0403V7.23313C11.8129 6.94107 11.8722 6.67421 11.9909 6.44294C12.108 6.21314 12.2785 6.03524 12.5142 5.89439C12.7484 5.75503 13.0375 5.68535 13.3756 5.68535C13.7136 5.68535 13.9715 5.75059 14.142 5.88105C14.3155 6.01448 14.4341 6.18646 14.5008 6.40884C14.5734 6.65198 14.6105 6.92921 14.6105 7.23462V11.0418C14.6105 11.3546 14.7158 11.6215 14.9218 11.8335C15.1294 12.0485 15.3948 12.1567 15.7106 12.1567C16.0263 12.1567 16.2902 12.0485 16.4993 11.8335C16.7054 11.6215 16.8106 11.3546 16.8106 11.0418V7.23462C16.8106 6.59416 16.738 6.0041 16.5956 5.4778C16.4459 4.92777 16.1657 4.47856 15.7625 4.14499L15.761 4.14202Z" fill="#fff"/>
<path d="M25.19 6.18349C24.978 5.68684 24.6859 5.24356 24.3242 4.86402C23.9609 4.48449 23.5369 4.18205 23.064 3.96412C22.5866 3.7447 22.0751 3.63202 21.5414 3.63202C20.8535 3.63202 20.1938 3.81141 19.5785 4.16574C18.9648 4.52007 18.4607 5.03303 18.0826 5.69277C17.7046 6.35102 17.5119 7.15456 17.5119 8.07967C17.5119 8.8758 17.6883 9.59928 18.0352 10.2323C18.3851 10.8683 18.8921 11.3783 19.543 11.7475C20.1908 12.1152 20.9632 12.302 21.8394 12.302C22.3553 12.302 22.8639 12.216 23.3501 12.0455C23.8379 11.8735 24.2248 11.6689 24.4947 11.4406C24.8238 11.1826 24.9898 10.8817 24.9898 10.5496C24.9898 10.2976 24.8979 10.0737 24.7156 9.88541C24.4042 9.5637 23.9402 9.49699 23.4183 9.75791C23.3071 9.8187 23.1856 9.89134 23.0432 9.9803C22.9276 10.0529 22.769 10.1167 22.5718 10.1715C22.3731 10.2264 22.0959 10.2531 21.749 10.2531C21.4021 10.2531 21.0448 10.1641 20.726 9.98919C20.4088 9.81425 20.1449 9.55481 19.9418 9.21678C19.8647 9.0878 19.8024 8.94696 19.7535 8.79426H24.3968C24.6829 8.79426 24.9379 8.70234 25.1544 8.52295C25.3783 8.33615 25.4983 8.09005 25.5117 7.78316C25.5117 7.22276 25.4035 6.68459 25.19 6.18497V6.18349ZM19.7891 6.82247C19.8869 6.53634 20.0203 6.30802 20.1864 6.14346C20.3495 5.98038 20.5452 5.86326 20.7705 5.79358C21.0077 5.72094 21.2672 5.68387 21.5429 5.68387C21.8187 5.68387 22.0781 5.74466 22.3212 5.86326C22.5644 5.98335 22.7719 6.14643 22.935 6.34954C23.0685 6.51706 23.15 6.69645 23.1826 6.89067H19.7683C19.7757 6.86695 19.7831 6.84471 19.7905 6.82247H19.7891Z" fill="#fff"/>
<path d="M96.9957 24.3581L93.6066 23.768C91.8157 23.4656 91.8157 22.6724 91.8157 22.3744C91.8157 21.5664 92.7927 20.7303 94.4279 20.7303C97.2181 20.7303 97.7148 22.4204 97.7993 22.9378L97.906 23.5812C97.9253 23.7013 98.0291 23.7888 98.1506 23.7888H104.523C104.656 23.7888 104.766 23.6835 104.772 23.5501C104.775 23.4715 104.837 21.6094 104.22 20.2425C103.454 18.0765 101.168 14.4591 94.465 14.4591C88.9158 14.4591 84.5705 18.1091 84.5705 22.7688C84.5705 26.0437 86.6268 28.6367 90.0648 29.8657H83.7076C83.5742 29.8657 83.4645 29.971 83.4586 30.1044C83.4571 30.1533 83.4171 31.2993 83.6884 32.4602C83.9789 34.3934 85.0449 36.2837 86.6134 37.6491C88.6416 39.4133 91.4792 40.3444 94.8193 40.3444C97.8289 40.3444 100.416 39.4756 102.3 37.8315C104.016 36.3356 105 34.2704 105 32.1652C105 28.1904 101.933 25.1987 96.9957 24.3581ZM97.611 32.4913C97.611 33.4505 96.5435 34.0702 94.892 34.0702C93.6674 34.0702 90.7868 33.7544 90.4948 30.8353L90.428 30.1682C90.428 30.1682 90.428 30.1563 90.4251 30.1504C90.431 30.1089 90.428 30.0673 90.4117 30.0258C90.4043 30.0066 90.3954 29.9888 90.385 29.9739C90.9395 30.1548 91.5296 30.3016 92.1493 30.4098L95.6006 30.9984C96.8593 31.2193 97.611 31.7782 97.611 32.4913Z" fill="#fff"/>
</svg>